<svg xmlns="http://www.w3.org/2000/svg" viewBox="0 0 64 64" role="img" aria-label="Portfolio icon">
  <defs>
    <linearGradient id="g" x1="0" y1="0" x2="1" y2="1">
      <stop offset="0%" stop-color="#6D28D9"/>
      <stop offset="100%" stop-color="#0EA5E9"/>
    </linearGradient>
  </defs>
  <rect x="4" y="4" width="56" height="56" rx="14" fill="url(#g)"/>
  <path d="M20 26h24a4 4 0 0 1 4 4v14a4 4 0 0 1-4 4H20a4 4 0 0 1-4-4V30a4 4 0 0 1 4-4Z" fill="#fff" opacity="0.95"/>
  <path d="M26 22a6 6 0 0 1 12 0v4h-3v-4a3 3 0 0 0-6 0v4h-3v-4Z" fill="#fff"/>
  <circle cx="32" cy="36" r="2.6" fill="#6D28D9"/>
</svg>
